<svg width="162" height="37" viewBox="0 0 162 37" fill="none" xmlns="http://www.w3.org/2000/svg">
<path d="M45.4897 8.40259H36.5663V13.7628H45.4897V27.8938H51.7012V13.7628H60.6211V8.40259H51.7012H45.4897Z" fill="#9163FF"/>
<path d="M80.1067 8.40259H63.6562V27.8938H69.8643V24.1661H75.4251L78.5204 28.0906H86.1072L82.6497 23.7033C85.5972 22.6175 87.7111 19.7096 87.7111 16.2843C87.7111 11.9335 84.3063 8.40259 80.1032 8.40259H80.1067ZM69.8678 13.7628H79.0691C80.4127 13.7628 81.503 14.8924 81.503 16.2843C81.503 17.6763 80.4127 18.8059 79.0691 18.8059H69.8678V13.7628Z" fill="#9163FF"/>
<path d="M90.1455 8.40259V13.7628V15.8434V20.453V22.5336V27.8938H96.3535H111.095V22.5336H96.3535V20.453H106.779V15.8434H96.3535V13.7628H111.095V8.40259H96.3535H90.1455Z" fill="#9163FF"/>
<path d="M114.091 8.40259V13.7628V15.8434V20.453V22.5336V27.8938H120.302H135.044V22.5336H120.302V20.453H130.728V15.8434H120.302V13.7628H135.044V8.40259H120.302H114.091Z" fill="#9163FF"/>
<path d="M152.595 8.40259H138.044V27.8938H152.595C157.79 27.8938 162 23.5321 162 18.15C162 12.768 157.79 8.40623 152.595 8.40623V8.40259ZM151.557 22.5336H144.252V13.7591H151.557C153.896 13.7591 155.792 15.7232 155.792 18.1464C155.792 20.5696 153.896 22.5336 151.557 22.5336Z" fill="#9163FF"/>
<path d="M18.8318 6.89742C17.3722 6.12491 15.5678 6.11762 14.1011 6.8792L10.2109 8.85784L16.0708 12.0572L18.8354 10.596C21.294 9.08012 20.397 7.72458 18.8354 6.89742H18.8318Z" fill="#9163FF"/>
<path d="M27.5053 25.4158L16.5489 31.7088L4.03083 24.3991V21.2836L16.672 28.7536L28.4128 21.9213C30.2875 20.7734 30.9382 20.1248 30.9382 18.6527V14.3201C30.794 16.0182 29.7282 16.7688 27.5334 18.1498C27.5334 18.1498 17.0484 24.1185 16.672 24.3335V24.3044L4.02731 17.0457V13.861L16.6087 20.7516L25.7959 15.4898C30.7658 12.6038 34.3007 7.86674 24.5086 2.52842C19.1939 -0.630839 12.7713 -0.915063 7.67827 2.16039L0 6.75171V25.0295V26.8333V26.8916L16.5489 36.4932V36.4349L27.8781 29.854C30.8467 28.2216 30.8714 27.0154 30.8854 25.8312L30.9382 21.4804C30.7905 23.1784 29.672 24.155 27.5053 25.4121V25.4158ZM10.0982 5.24678C14.53 2.53936 18.3462 3.08959 21.7686 4.91154C24.287 6.30351 27.4139 8.98907 23.1579 11.8969L16.5454 15.6027L3.92531 8.8506L10.1017 5.24678H10.0982Z" fill="#9163FF"/>
</svg>
