<svg width="1536" height="237" viewBox="0 0 1536 237" fill="none" xmlns="http://www.w3.org/2000/svg">
<path d="M109.033 0.000488281H-0.182617V65.6048H109.033V238.557H185.057V65.6048H294.229V0.000488281H185.057H109.033Z" fill="white"/>
<path d="M532.716 0H331.376V238.557H407.357V192.933H475.418L513.301 240.965H606.157L563.84 187.269C599.915 173.978 625.787 138.389 625.787 96.4664C625.787 43.2159 584.116 0 532.673 0H532.716ZM407.4 65.6043H520.016C536.461 65.6043 549.806 79.4298 549.806 96.4664C549.806 113.503 536.461 127.329 520.016 127.329H407.4V65.6043Z" fill="white"/>
<path d="M655.583 0V65.6043V91.07V147.487V172.953V238.557H731.565H911.983V172.953H731.565V147.487H859.162V91.07H731.565V65.6043H911.983V0H731.565H655.583Z" fill="white"/>
<path d="M948.653 0V65.6043V91.07V147.487V172.953V238.557H1024.68H1205.1V172.953H1024.68V147.487H1152.27V91.07H1024.68V65.6043H1205.1V0H1024.68H948.653Z" fill="white"/>
<path d="M1419.91 0H1241.82V238.557H1419.91C1483.5 238.557 1535.03 185.173 1535.03 119.301C1535.03 53.4289 1483.5 0.0445995 1419.91 0.0445995V0ZM1407.21 172.953H1317.8V65.5597H1407.21C1435.84 65.5597 1459.05 89.5982 1459.05 119.256C1459.05 148.914 1435.84 172.953 1407.21 172.953Z" fill="white"/>
</svg>
