<svg width="13" height="13" viewBox="0 0 13 13" fill="none" xmlns="http://www.w3.org/2000/svg">
<path d="M5.07859 1.2118C5.36429 0.262863 6.70796 0.262863 6.99367 1.2118L7.57567 3.14481C7.70288 3.56732 8.09197 3.85651 8.53321 3.85651H10.5693C11.5195 3.85651 11.9341 5.05718 11.1863 5.64346L9.41127 7.03521C9.08719 7.28932 8.95202 7.71612 9.07075 8.11047L9.71735 10.258C9.99883 11.1929 8.91112 11.9357 8.14279 11.3333L6.65314 10.1653C6.29084 9.88124 5.78141 9.88124 5.41911 10.1653L3.92946 11.3333C3.16113 11.9357 2.07342 11.1929 2.3549 10.258L3.0015 8.11047C3.12023 7.71612 2.98507 7.28932 2.66098 7.03521L0.885917 5.64346C0.138162 5.05718 0.552739 3.85651 1.50293 3.85651H3.53904C3.98028 3.85651 4.36937 3.56732 4.49658 3.14481L5.07859 1.2118Z" stroke="white"/>
</svg>
