<svg width="13" height="12" viewBox="0 0 13 12" fill="none" xmlns="http://www.w3.org/2000/svg">
<path d="M5.08454 1.20468C5.37493 0.265024 6.70499 0.265026 6.99538 1.20469L7.59113 3.1325C7.72062 3.5515 8.108 3.83725 8.54655 3.83725H10.577C11.5335 3.83725 11.9442 5.05125 11.184 5.63192L9.45654 6.95155C9.12349 7.20596 8.98442 7.64106 9.10816 8.04147L9.74744 10.1101C10.0349 11.0403 8.95867 11.791 8.18497 11.2L6.647 10.0252C6.28861 9.7514 5.79131 9.7514 5.43292 10.0252L3.89495 11.2C3.12125 11.791 2.04502 11.0403 2.33248 10.1101L2.97176 8.04147C3.0955 7.64106 2.95643 7.20596 2.62338 6.95155L0.895873 5.63191C0.135737 5.05125 0.546373 3.83725 1.50292 3.83725H3.53337C3.97192 3.83725 4.3593 3.5515 4.48878 3.1325L5.08454 1.20468Z" stroke="#754FFF"/>
</svg>
