<svg width="12" height="12" viewBox="0 0 12 12" fill="none" xmlns="http://www.w3.org/2000/svg">
<path d="M4.57328 0.71172C4.85898 -0.23723 6.20267 -0.237232 6.48837 0.711718L7.06933 2.64135C7.19653 3.06386 7.58563 3.35307 8.02687 3.35307H10.0597C11.0099 3.35307 11.4245 4.55371 10.6767 5.14L8.90425 6.52979C8.58018 6.7839 8.44502 7.21069 8.56374 7.60502L9.20933 9.74933C9.4908 10.6842 8.40307 11.427 7.63475 10.8246L6.14786 9.65869C5.78555 9.37461 5.2761 9.37461 4.91379 9.6587L3.42691 10.8246C2.65858 11.427 1.57086 10.6842 1.85233 9.74933L2.49792 7.60502C2.61664 7.21069 2.48148 6.7839 2.15741 6.52979L0.384931 5.14C-0.362801 4.55371 0.0517852 3.35307 1.00197 3.35307H3.03479C3.47603 3.35307 3.86512 3.06386 3.99233 2.64135L4.57328 0.71172Z" fill="#D9D9D9"/>
</svg>
