<svg width="31" height="31" viewBox="0 0 31 31" fill="none" xmlns="http://www.w3.org/2000/svg">
<path d="M17.7346 27.1249C17.5075 27.5164 17.1815 27.8413 16.7894 28.0672C16.3972 28.2931 15.9526 28.412 15.5 28.412C15.0474 28.412 14.6028 28.2931 14.2106 28.0672C13.8185 27.8413 13.4925 27.5164 13.2654 27.1249M23.25 10.3333C23.25 8.27782 22.4335 6.30658 20.9801 4.85317C19.5267 3.39977 17.5554 2.58325 15.5 2.58325C13.4446 2.58325 11.4733 3.39977 10.0199 4.85317C8.56652 6.30658 7.75 8.27782 7.75 10.3333C7.75 19.3749 3.875 21.9583 3.875 21.9583H27.125C27.125 21.9583 23.25 19.3749 23.25 10.3333Z" stroke="#1E1E1E" stroke-width="2" stroke-linecap="round" stroke-linejoin="round"/>
</svg>
